<svg version="1.1" id="Layer_1" xmlns="http://www.w3.org/2000/svg" xmlns:xlink="http://www.w3.org/1999/xlink" x="0px" y="0px"
	 width="100%" viewBox="0 0 512 512" enable-background="new 0 0 512 512" xml:space="preserve">
<path fill="#000000" opacity="1.000000" stroke="none" 
	d="
M281.836670,439.141876 
	C321.757294,461.011658 364.945923,456.577759 398.251190,427.406006 
	C435.988159,394.352600 441.759003,334.498230 411.045227,294.718414 
	C410.027344,293.400055 408.909790,292.143005 408.027283,290.738861 
	C406.029358,287.559998 405.726318,284.276550 408.991852,281.851410 
	C412.168915,279.491974 415.388519,280.326904 417.871246,283.220978 
	C423.430908,289.701874 428.010956,296.865906 431.802856,304.498413 
	C466.441406,374.220001 420.669067,457.242950 343.270538,465.132904 
	C298.037537,469.743896 254.125870,445.936157 233.420654,405.249786 
	C231.110870,400.711029 228.488846,399.186157 223.450607,399.212006 
	C182.621841,399.421509 141.791534,399.331329 100.961685,399.326080 
	C90.630440,399.324738 89.653160,398.318329 89.653053,387.781769 
	C89.653000,382.448914 89.631470,377.115784 89.675529,371.783264 
	C89.708275,367.820831 91.125885,364.886810 95.620537,364.698914 
	C99.515518,364.536102 101.994011,367.198029 102.204308,371.855774 
	C102.354500,375.182281 102.421913,378.531921 102.206215,381.850433 
	C101.965965,385.546661 103.403618,386.989685 107.112556,386.755371 
	C110.764442,386.524689 114.442093,386.699707 118.108437,386.700256 
	C151.272263,386.705109 184.436111,386.720947 217.599915,386.693909 
	C219.891068,386.692047 222.249649,387.120392 224.990387,385.959351 
	C223.726517,378.881866 221.717636,371.856262 221.305420,364.592896 
	C221.173553,362.269318 220.808624,359.955597 220.745300,357.632080 
	C220.534683,349.905579 220.568649,349.902893 212.578964,349.900574 
	C189.414291,349.893890 166.249588,349.896027 143.084946,349.870911 
	C140.922516,349.868561 138.759003,349.720367 136.598236,349.599701 
	C132.741364,349.384369 130.092590,347.452576 129.961716,343.534332 
	C129.817093,339.204041 132.842545,337.455597 136.755173,337.097260 
	C138.741196,336.915375 140.749786,336.940125 142.748199,336.939423 
	C166.579498,336.931366 190.410782,336.935913 214.242081,336.937622 
	C221.917267,336.938171 221.926315,336.940704 223.531479,329.525085 
	C223.879532,327.917206 224.137146,326.289703 224.422440,324.746857 
	C222.749390,322.686096 220.590271,323.464417 218.715958,323.460419 
	C192.718292,323.405273 166.720490,323.423035 140.722717,323.416870 
	C139.056824,323.416473 137.384613,323.448395 135.726318,323.321777 
	C132.184921,323.051300 130.162109,320.897095 129.966019,317.543640 
	C129.781525,314.388916 131.590744,312.100250 134.732101,311.374817 
	C136.650162,310.931854 138.689758,310.885162 140.675003,310.883026 
	C167.506012,310.854187 194.339340,310.678711 221.166321,311.009216 
	C227.096939,311.082275 231.100845,309.936554 232.849564,303.877686 
	C233.386734,302.016449 234.543121,300.333923 235.411438,298.578766 
	C233.231171,296.723907 230.970367,297.443207 228.912460,297.439514 
	C199.415085,297.386902 169.917572,297.406860 140.420105,297.401276 
	C138.754654,297.400940 137.076859,297.445343 135.426331,297.268372 
	C132.131210,296.915009 130.323807,294.788544 129.955566,291.696350 
	C129.564682,288.414337 131.419250,286.243652 134.481583,285.421417 
	C136.373291,284.913483 138.425476,284.850616 140.405914,284.848511 
	C172.569748,284.814148 204.734726,284.687866 236.896530,284.944824 
	C242.582870,284.990234 246.846405,283.713959 250.144714,278.991455 
	C251.826584,276.583405 254.095062,274.585114 257.030426,271.385742 
	C253.404877,271.385742 250.839355,271.385895 248.273819,271.385773 
	C212.610214,271.383911 176.946594,271.382690 141.282990,271.377777 
	C139.616745,271.377533 137.947586,271.400116 136.284836,271.314362 
	C132.590652,271.123962 130.253891,269.114197 129.940491,265.499664 
	C129.609543,261.682556 132.156723,259.731476 135.576584,259.025421 
	C137.344772,258.660370 139.223434,258.768585 141.052216,258.768036 
	C183.715225,258.754944 226.378281,258.732086 269.041199,258.798615 
	C272.646637,258.804260 275.840179,258.120148 279.034149,256.356598 
	C289.161652,250.764694 299.927521,246.756821 311.350525,244.824158 
	C314.535461,244.285294 315.531250,242.932129 315.513000,239.925278 
	C315.452301,229.927231 315.567596,219.928284 315.572357,209.929657 
	C315.584869,183.598587 315.571838,157.267502 315.579651,130.936432 
	C315.580170,129.104889 315.526855,127.256081 315.747437,125.445633 
	C316.142456,122.203598 318.202423,120.224350 321.335693,120.008759 
	C324.475952,119.792686 326.843292,121.496239 327.578644,124.650734 
	C328.062469,126.726166 328.141266,128.931198 328.143494,131.078461 
	C328.179657,166.075378 328.170563,201.072372 328.182434,236.069336 
	C328.184662,242.632507 328.208130,242.570328 334.751312,242.776825 
	C356.434143,243.461090 376.316040,249.831284 394.386139,261.832642 
	C395.492493,262.567444 396.573700,263.381317 397.519470,264.308502 
	C400.019897,266.759918 400.317780,269.649536 398.296600,272.409027 
	C396.304199,275.129150 393.548370,276.028107 390.393005,274.190216 
	C385.646729,271.425690 381.075592,268.319153 376.175720,265.865936 
	C316.634918,236.055710 244.256714,272.930664 234.722519,338.820282 
	C228.509750,381.755890 245.298630,415.213440 281.836670,439.141876 
z"/>
<path fill="#000000" opacity="1.000000" stroke="none" 
	d="
M385.268616,410.849274 
	C385.189301,420.692810 383.576447,422.288513 374.146240,422.290375 
	C345.835541,422.295990 317.524872,422.301300 289.214172,422.296356 
	C280.855621,422.294891 278.901001,420.358734 278.890198,412.020264 
	C278.874054,399.530304 278.992126,387.039398 278.879456,374.550476 
	C278.730164,358.005219 285.140198,345.547882 300.717285,338.597351 
	C301.140778,338.408356 301.464996,337.996948 301.868408,337.661926 
	C297.812042,323.060547 299.813110,308.196747 299.829376,293.471832 
	C299.840271,283.621735 309.088776,275.056061 319.242096,274.797729 
	C330.891754,274.501312 342.556213,274.612732 354.211243,274.769196 
	C360.466064,274.853180 364.199493,277.762604 364.458893,284.035217 
	C365.151672,300.787811 366.672241,317.628876 363.090393,334.250397 
	C362.462067,337.166229 363.098633,338.358398 365.611481,339.624603 
	C379.023560,346.382843 385.086090,357.703613 385.234192,372.402435 
	C385.361725,385.057739 385.265228,397.715363 385.268616,410.849274 
M371.005676,362.671967 
	C369.772369,359.308807 367.727600,356.521027 365.020813,354.195862 
	C358.920654,348.955780 355.188171,348.695251 348.164734,352.490875 
	C337.187347,358.423187 325.932831,358.565796 315.420258,351.917480 
	C310.390198,348.736389 306.515015,349.355377 302.144440,352.079559 
	C296.435028,355.638153 292.521454,360.742737 292.247833,367.443756 
	C291.732513,380.064270 291.989990,392.714905 291.810150,405.351379 
	C291.751526,409.471558 294.178528,409.713440 297.357056,409.717346 
	C300.701477,409.721436 301.698273,408.162811 301.643646,405.099091 
	C301.539703,399.269867 301.587189,393.437073 301.635345,387.606293 
	C301.681427,382.026428 303.853302,379.177124 307.913574,379.219086 
	C311.811371,379.259369 314.145355,382.349701 314.212372,387.801056 
	C314.284027,393.631317 314.337646,399.466034 314.185089,405.293182 
	C314.101318,408.492828 315.265564,409.770111 318.537109,409.716980 
	C326.865021,409.581696 335.208130,409.426392 343.522736,409.790833 
	C348.507446,410.009338 350.399750,408.520599 350.111908,403.345306 
	C349.770996,397.215088 350.062195,391.029541 350.427063,384.888641 
	C350.611847,381.778717 352.588928,379.639435 355.877014,379.316376 
	C358.640076,379.044922 360.726929,380.347351 362.007935,382.774658 
	C362.963470,384.585205 363.052826,386.597839 363.049011,388.618347 
	C363.038025,394.449097 363.101501,400.280090 363.072510,406.110687 
	C363.057831,409.054840 364.755432,409.815765 367.281006,409.647430 
	C369.496216,409.499786 372.616333,410.288147 372.528015,406.742218 
	C372.168060,392.294556 374.096344,377.777618 371.005676,362.671967 
M349.526215,333.851929 
	C353.079224,328.033630 351.591217,321.558655 351.983337,315.319336 
	C352.212189,311.677917 350.780151,310.179749 347.062622,310.393951 
	C338.093781,310.910675 329.119354,311.155334 320.133148,310.497925 
	C317.709198,310.320618 315.152832,309.962830 312.815186,311.090912 
	C310.726440,328.252563 312.529266,336.905792 324.289581,342.484314 
	C333.095093,346.661194 342.778503,343.363342 349.526215,333.851929 
M342.434998,297.869995 
	C344.268250,297.866364 346.105133,297.786804 347.933990,297.874634 
	C351.938385,298.067017 351.956604,295.384521 351.966248,292.547760 
	C351.976013,289.684875 351.916412,287.231506 347.886383,287.300537 
	C338.889160,287.454620 329.887482,287.341431 320.887634,287.352783 
	C317.814697,287.356689 315.475128,288.795288 313.683044,291.202576 
	C312.536621,292.742554 311.833984,294.515289 312.567749,296.350525 
	C313.361481,298.335876 315.370392,297.837677 316.955444,297.848145 
	C325.121674,297.902069 333.288452,297.870361 342.434998,297.869995 
z"/>
<path fill="#000000" opacity="1.000000" stroke="none" 
	d="
M102.241325,204.000031 
	C102.245537,249.482956 102.254906,294.465881 102.237381,339.448822 
	C102.236542,341.603210 102.333878,343.846802 101.790627,345.890717 
	C101.005028,348.846466 98.856140,350.976562 95.670029,350.848694 
	C92.266495,350.712128 90.273247,348.431274 89.789650,345.079376 
	C89.553627,343.443481 89.656662,341.754395 89.656563,340.089386 
	C89.651543,254.121994 89.650459,168.154617 89.653885,82.187233 
	C89.654274,72.508522 90.523659,71.648987 100.228386,71.648834 
	C172.700882,71.647659 245.173386,71.647293 317.645874,71.652603 
	C326.520325,71.653252 328.155334,73.272789 328.172913,82.052177 
	C328.183929,87.549889 328.279114,93.051720 328.103882,98.544273 
	C327.941071,103.646973 325.419098,106.550575 321.504456,106.227188 
	C316.844177,105.842224 315.732666,102.623703 315.532288,98.508179 
	C315.309357,93.929245 317.563416,88.054192 314.161438,85.118172 
	C310.916321,82.317520 305.190582,84.254242 300.568420,84.249855 
	C236.759354,84.189316 172.950226,84.208954 109.141106,84.210732 
	C102.270416,84.210922 102.259003,84.216125 102.257408,91.043182 
	C102.248650,128.528793 102.245949,166.014404 102.241325,204.000031 
z"/>
<path fill="#000000" opacity="1.000000" stroke="none" 
	d="
M215.224167,124.335297 
	C215.225372,126.453789 215.355148,128.132065 215.203613,129.784546 
	C214.471191,137.771927 215.181625,143.823334 224.770874,147.330917 
	C233.696426,150.595734 237.366379,159.797562 236.892029,169.146866 
	C236.345596,179.916656 231.241409,188.691162 221.021362,193.361938 
	C217.181305,195.116898 214.782181,196.725601 214.958435,201.547836 
	C215.092133,205.206131 212.432541,207.735336 208.394333,207.518051 
	C204.617157,207.314804 202.455231,204.913895 202.747864,201.256409 
	C203.071640,197.209930 200.996277,196.002701 197.657303,195.483536 
	C193.112442,194.776901 189.126602,192.616623 185.340698,190.199692 
	C182.042679,188.094208 180.419083,184.972229 182.701508,181.253998 
	C184.945831,177.597855 188.284973,177.478439 191.836792,179.426254 
	C194.878510,181.094330 197.772049,183.150787 201.786270,183.054886 
	C203.288239,180.129837 202.527191,176.939651 202.594238,173.891251 
	C202.718826,168.228241 202.501755,162.556580 202.676315,156.896210 
	C202.792435,153.130814 201.497604,150.687485 197.986420,148.973969 
	C192.855316,146.469864 188.176483,143.285538 185.827469,137.656021 
	C180.891479,125.826721 185.983170,112.362579 197.788239,107.028137 
	C201.020172,105.567696 202.996353,104.162407 202.754715,100.214600 
	C202.531036,96.560303 204.820694,94.072411 208.465240,93.915649 
	C212.369324,93.747711 214.953293,96.313103 215.004669,100.041580 
	C215.059341,104.009964 216.768127,105.589630 220.300644,106.463654 
	C223.553970,107.268593 226.477371,109.008301 228.940659,111.313766 
	C231.418777,113.633118 232.170334,116.479042 230.091293,119.378456 
	C227.983658,122.317741 225.097900,123.125580 221.757507,121.334671 
	C220.017502,120.401779 218.528305,118.939583 216.365067,118.794968 
	C214.570374,120.185562 215.490204,122.173019 215.224167,124.335297 
M222.641708,162.007141 
	C220.973221,159.481079 218.984390,157.458954 215.699463,157.217331 
	C215.699463,165.389252 215.699463,173.209259 215.699463,181.256134 
	C223.138763,177.540466 225.492386,171.180069 222.641708,162.007141 
M202.424316,121.547279 
	C202.240845,120.809387 202.188675,119.456436 201.141830,120.041267 
	C197.752518,121.934753 196.607620,125.404381 196.558472,128.898407 
	C196.514404,132.030365 197.774002,134.953354 201.770065,135.741318 
	C203.242767,131.098358 202.508591,126.630554 202.424316,121.547279 
z"/>
<path fill="#000000" opacity="1.000000" stroke="none" 
	d="
M268.992767,232.717834 
	C273.324127,232.738541 277.165588,232.609009 280.987762,232.823547 
	C284.721283,233.033112 287.467804,234.767960 287.485748,238.926743 
	C287.504456,243.264587 284.861145,245.141846 280.785187,245.333466 
	C279.287994,245.403839 277.785950,245.382034 276.286102,245.382004 
	C231.286346,245.381088 186.286591,245.378647 141.286835,245.370834 
	C139.454254,245.370514 137.608490,245.444534 135.791931,245.258636 
	C132.351212,244.906555 130.256668,242.828476 129.905151,239.479965 
	C129.527405,235.881592 131.862122,233.904282 135.038528,233.121979 
	C136.941376,232.653366 139.004150,232.738525 140.995117,232.737564 
	C183.494888,232.717194 225.994675,232.719955 268.992767,232.717834 
z"/>
</svg>